<svg width="20" height="23" viewBox="0 0 20 23" fill="none" xmlns="http://www.w3.org/2000/svg">
<g id="Book icon">
<path id="Vector" fill-rule="evenodd" clip-rule="evenodd" d="M2.83875 0.1288C1.82625 0.2507 1.29125 0.47495 0.90875 0.8188C0.5275 1.1638 0.27875 1.6468 0.1425 2.55875C0.0024998 3.4983 0 4.7426 0 6.52625V16.3818C0.494629 16.0703 1.04392 15.8396 1.62375 15.6998C2.28375 15.54 3.05375 15.5399 4.1825 15.5411H20V6.5274C20 4.7426 19.9975 3.4983 19.8575 2.55875C19.7212 1.6468 19.4725 1.1638 19.0913 0.8188C18.7088 0.47495 18.1738 0.2507 17.1613 0.1288C16.1188 0.00229999 14.7387 0 12.7587 0H7.24125C5.26125 0 3.88125 0.00229999 2.83875 0.1288ZM3.44875 5.28425C3.44875 4.76905 3.91125 4.3516 4.4825 4.3516H15.5175C15.7887 4.34945 16.0498 4.44628 16.2435 4.62087C16.4373 4.79547 16.548 5.0336 16.5512 5.2831C16.5483 5.5328 16.4378 5.77122 16.244 5.94607C16.0502 6.12091 15.7889 6.2179 15.5175 6.21575H4.4825C4.21129 6.2179 3.95022 6.12107 3.75646 5.94647C3.56269 5.77188 3.45205 5.53375 3.44875 5.28425ZM4.4825 8.7032C4.21129 8.70105 3.95022 8.79788 3.75646 8.97248C3.56269 9.14707 3.45205 9.3852 3.44875 9.6347C3.44875 10.1499 3.91125 10.5673 4.4825 10.5673H11.3787C11.6502 10.5698 11.9116 10.4731 12.1056 10.2985C12.2996 10.1239 12.4105 9.88555 12.4137 9.63585C12.4108 9.38595 12.3001 9.14735 12.106 8.97247C11.912 8.7976 11.6504 8.70075 11.3787 8.7032H4.4825Z" fill="black"/>
<path id="Vector_2" d="M4.34123 17.4053H20C19.9962 18.7048 19.9737 19.6754 19.8587 20.4413C19.7225 21.3532 19.4737 21.8362 19.0925 22.1812C18.71 22.5251 18.175 22.7493 17.1625 22.8712C16.12 22.9977 14.74 23 12.76 23H7.24123C5.26123 23 3.88123 22.9977 2.83873 22.8724C1.82623 22.7493 1.29123 22.5251 0.908726 22.1812C0.527476 21.8362 0.278725 21.3532 0.142475 20.4413C0.0912251 20.0963 0.0574756 19.7087 0.0374756 19.2683C0.20918 18.8377 0.491913 18.4519 0.861395 18.144C1.23088 17.8362 1.67606 17.6154 2.15873 17.5007C2.52123 17.4133 2.99248 17.4053 4.34123 17.4053Z" fill="black"/>
</g>
</svg>
