<svg width="20" height="23" viewBox="0 0 20 23" fill="none" xmlns="http://www.w3.org/2000/svg">
<path id="Note icon" d="M18 8.47368V7.26316L12 0H2C0.89 0 0 1.07737 0 2.42105V19.3684C0 20.0105 0.210714 20.6263 0.585786 21.0804C0.960859 21.5344 1.46957 21.7895 2 21.7895H8V19.5258L16.39 9.36947C16.83 8.83684 17.39 8.54632 18 8.47368ZM11 1.81579L16.5 8.47368H11V1.81579ZM19.85 13.5458L18.87 14.7321L16.83 12.2626L17.81 11.0763C18 10.8342 18.33 10.8342 18.53 11.0763L19.85 12.6742C20.05 12.9163 20.05 13.3158 19.85 13.5458ZM16.13 13.11L18.17 15.5795L12.04 23H10V20.5305L16.13 13.11Z" fill="black"/>
</svg>
